<?xml version="1.0" encoding="UTF-8" standalone="no"?>
<!DOCTYPE svg PUBLIC "-//W3C//DTD SVG 1.1//EN"
 "http://www.w3.org/Graphics/SVG/1.1/DTD/svg11.dtd">
<!-- Generated by graphviz version 2.40.1 (20161225.0304)
 -->
<!-- Title: ogp Pages: 1 -->
<svg width="1553pt" height="369pt"
 viewBox="0.00 0.00 1552.50 369.00" xmlns="http://www.w3.org/2000/svg" xmlns:xlink="http://www.w3.org/1999/xlink">
<g id="graph0" class="graph" transform="scale(1 1) rotate(0) translate(4 365)">
<title>ogp</title>
<polygon fill="#ffffff" stroke="transparent" points="-4,4 -4,-365 1548.5,-365 1548.5,4 -4,4"/>
<!-- failed_jobs -->
<g id="node1" class="node">
<title>failed_jobs</title>
<polygon fill="#efefef" stroke="transparent" points="43.5,-252.5 43.5,-287.5 240.5,-287.5 240.5,-252.5 43.5,-252.5"/>
<polygon fill="none" stroke="#000000" points="43.5,-252.5 43.5,-287.5 240.5,-287.5 240.5,-252.5 43.5,-252.5"/>
<text text-anchor="start" x="50.3621" y="-265.3" font-family="Arial Bold" font-size="18.00" fill="#000000">failed_jobs</text>
<text text-anchor="start" x="136.3841" y="-265.3" font-family="Arial" font-size="14.00" fill="#000000"> </text>
<text text-anchor="start" x="140.2747" y="-265.3" font-family="Arial" font-size="14.00" fill="#666666">[BASE TABLE]</text>
<polygon fill="none" stroke="#000000" points="43.5,-222.5 43.5,-252.5 240.5,-252.5 240.5,-222.5 43.5,-222.5"/>
<text text-anchor="start" x="50.5" y="-233.9" font-family="Arial" font-size="14.00" fill="#000000">id </text>
<text text-anchor="start" x="65.2798" y="-233.9" font-family="Arial" font-size="14.00" fill="#666666">[bigint(20) unsigned]</text>
<polygon fill="none" stroke="#000000" points="43.5,-192.5 43.5,-222.5 240.5,-222.5 240.5,-192.5 43.5,-192.5"/>
<text text-anchor="start" x="50.5" y="-203.9" font-family="Arial" font-size="14.00" fill="#000000">connection </text>
<text text-anchor="start" x="122.0834" y="-203.9" font-family="Arial" font-size="14.00" fill="#666666">[text]</text>
<polygon fill="none" stroke="#000000" points="43.5,-162.5 43.5,-192.5 240.5,-192.5 240.5,-162.5 43.5,-162.5"/>
<text text-anchor="start" x="50.5" y="-173.9" font-family="Arial" font-size="14.00" fill="#000000">queue </text>
<text text-anchor="start" x="93.3036" y="-173.9" font-family="Arial" font-size="14.00" fill="#666666">[text]</text>
<polygon fill="none" stroke="#000000" points="43.5,-132.5 43.5,-162.5 240.5,-162.5 240.5,-132.5 43.5,-132.5"/>
<text text-anchor="start" x="50.5" y="-143.9" font-family="Arial" font-size="14.00" fill="#000000">payload </text>
<text text-anchor="start" x="103.4102" y="-143.9" font-family="Arial" font-size="14.00" fill="#666666">[longtext]</text>
<polygon fill="none" stroke="#000000" points="43.5,-102.5 43.5,-132.5 240.5,-132.5 240.5,-102.5 43.5,-102.5"/>
<text text-anchor="start" x="50.5" y="-113.9" font-family="Arial" font-size="14.00" fill="#000000">exception </text>
<text text-anchor="start" x="114.3008" y="-113.9" font-family="Arial" font-size="14.00" fill="#666666">[longtext]</text>
<polygon fill="none" stroke="#000000" points="43.5,-72.5 43.5,-102.5 240.5,-102.5 240.5,-72.5 43.5,-72.5"/>
<text text-anchor="start" x="50.5" y="-83.9" font-family="Arial" font-size="14.00" fill="#000000">failed_at </text>
<text text-anchor="start" x="107.298" y="-83.9" font-family="Arial" font-size="14.00" fill="#666666">[timestamp]</text>
</g>
<!-- messages -->
<g id="node2" class="node">
<title>messages</title>
<polygon fill="#efefef" stroke="transparent" points="344.5,-237.5 344.5,-272.5 537.5,-272.5 537.5,-237.5 344.5,-237.5"/>
<polygon fill="none" stroke="#000000" points="344.5,-237.5 344.5,-272.5 537.5,-272.5 537.5,-237.5 344.5,-237.5"/>
<text text-anchor="start" x="351.3646" y="-250.3" font-family="Arial Bold" font-size="18.00" fill="#000000">messages</text>
<text text-anchor="start" x="433.3816" y="-250.3" font-family="Arial" font-size="14.00" fill="#000000"> </text>
<text text-anchor="start" x="437.2722" y="-250.3" font-family="Arial" font-size="14.00" fill="#666666">[BASE TABLE]</text>
<polygon fill="none" stroke="#000000" points="344.5,-207.5 344.5,-237.5 537.5,-237.5 537.5,-207.5 344.5,-207.5"/>
<text text-anchor="start" x="351.5" y="-218.9" font-family="Arial" font-size="14.00" fill="#000000">id </text>
<text text-anchor="start" x="366.2798" y="-218.9" font-family="Arial" font-size="14.00" fill="#666666">[char(36)]</text>
<polygon fill="none" stroke="#000000" points="344.5,-177.5 344.5,-207.5 537.5,-207.5 537.5,-177.5 344.5,-177.5"/>
<text text-anchor="start" x="351.5" y="-188.9" font-family="Arial" font-size="14.00" fill="#000000">file_path </text>
<text text-anchor="start" x="408.298" y="-188.9" font-family="Arial" font-size="14.00" fill="#666666">[varchar(255)]</text>
<polygon fill="none" stroke="#000000" points="344.5,-147.5 344.5,-177.5 537.5,-177.5 537.5,-147.5 344.5,-147.5"/>
<text text-anchor="start" x="351.5" y="-158.9" font-family="Arial" font-size="14.00" fill="#000000">content </text>
<text text-anchor="start" x="401.3022" y="-158.9" font-family="Arial" font-size="14.00" fill="#666666">[varchar(255)]</text>
<polygon fill="none" stroke="#000000" points="344.5,-117.5 344.5,-147.5 537.5,-147.5 537.5,-117.5 344.5,-117.5"/>
<text text-anchor="start" x="351.5" y="-128.9" font-family="Arial" font-size="14.00" fill="#000000">created_at </text>
<text text-anchor="start" x="421.528" y="-128.9" font-family="Arial" font-size="14.00" fill="#666666">[timestamp]</text>
<polygon fill="none" stroke="#000000" points="344.5,-87.5 344.5,-117.5 537.5,-117.5 537.5,-87.5 344.5,-87.5"/>
<text text-anchor="start" x="351.5" y="-98.9" font-family="Arial" font-size="14.00" fill="#000000">updated_at </text>
<text text-anchor="start" x="425.4326" y="-98.9" font-family="Arial" font-size="14.00" fill="#666666">[timestamp]</text>
</g>
<!-- migrations -->
<g id="node3" class="node">
<title>migrations</title>
<polygon fill="#efefef" stroke="transparent" points="641.5,-207.5 641.5,-242.5 835.5,-242.5 835.5,-207.5 641.5,-207.5"/>
<polygon fill="none" stroke="#000000" points="641.5,-207.5 641.5,-242.5 835.5,-242.5 835.5,-207.5 641.5,-207.5"/>
<text text-anchor="start" x="648.3732" y="-220.3" font-family="Arial Bold" font-size="18.00" fill="#000000">migrations</text>
<text text-anchor="start" x="731.373" y="-220.3" font-family="Arial" font-size="14.00" fill="#000000"> </text>
<text text-anchor="start" x="735.2636" y="-220.3" font-family="Arial" font-size="14.00" fill="#666666">[BASE TABLE]</text>
<polygon fill="none" stroke="#000000" points="641.5,-177.5 641.5,-207.5 835.5,-207.5 835.5,-177.5 641.5,-177.5"/>
<text text-anchor="start" x="648.5" y="-188.9" font-family="Arial" font-size="14.00" fill="#000000">id </text>
<text text-anchor="start" x="663.2798" y="-188.9" font-family="Arial" font-size="14.00" fill="#666666">[int(10) unsigned]</text>
<polygon fill="none" stroke="#000000" points="641.5,-147.5 641.5,-177.5 835.5,-177.5 835.5,-147.5 641.5,-147.5"/>
<text text-anchor="start" x="648.5" y="-158.9" font-family="Arial" font-size="14.00" fill="#000000">migration </text>
<text text-anchor="start" x="709.946" y="-158.9" font-family="Arial" font-size="14.00" fill="#666666">[varchar(255)]</text>
<polygon fill="none" stroke="#000000" points="641.5,-117.5 641.5,-147.5 835.5,-147.5 835.5,-117.5 641.5,-117.5"/>
<text text-anchor="start" x="648.5" y="-128.9" font-family="Arial" font-size="14.00" fill="#000000">batch </text>
<text text-anchor="start" x="686.629" y="-128.9" font-family="Arial" font-size="14.00" fill="#666666">[int(11)]</text>
</g>
<!-- password_resets -->
<g id="node4" class="node">
<title>password_resets</title>
<polygon fill="#efefef" stroke="transparent" points="940.5,-207.5 940.5,-242.5 1187.5,-242.5 1187.5,-207.5 940.5,-207.5"/>
<polygon fill="none" stroke="#000000" points="940.5,-207.5 940.5,-242.5 1187.5,-242.5 1187.5,-207.5 940.5,-207.5"/>
<text text-anchor="start" x="947.361" y="-220.3" font-family="Arial Bold" font-size="18.00" fill="#000000">password_resets</text>
<text text-anchor="start" x="1083.3852" y="-220.3" font-family="Arial" font-size="14.00" fill="#000000"> </text>
<text text-anchor="start" x="1087.2758" y="-220.3" font-family="Arial" font-size="14.00" fill="#666666">[BASE TABLE]</text>
<polygon fill="none" stroke="#000000" points="940.5,-177.5 940.5,-207.5 1187.5,-207.5 1187.5,-177.5 940.5,-177.5"/>
<text text-anchor="start" x="947.5" y="-188.9" font-family="Arial" font-size="14.00" fill="#000000">email </text>
<text text-anchor="start" x="984.8296" y="-188.9" font-family="Arial" font-size="14.00" fill="#666666">[varchar(255)]</text>
<polygon fill="none" stroke="#000000" points="940.5,-147.5 940.5,-177.5 1187.5,-177.5 1187.5,-147.5 940.5,-147.5"/>
<text text-anchor="start" x="947.5" y="-158.9" font-family="Arial" font-size="14.00" fill="#000000">token </text>
<text text-anchor="start" x="985.629" y="-158.9" font-family="Arial" font-size="14.00" fill="#666666">[varchar(255)]</text>
<polygon fill="none" stroke="#000000" points="940.5,-117.5 940.5,-147.5 1187.5,-147.5 1187.5,-117.5 940.5,-117.5"/>
<text text-anchor="start" x="947.5" y="-128.9" font-family="Arial" font-size="14.00" fill="#000000">created_at </text>
<text text-anchor="start" x="1017.528" y="-128.9" font-family="Arial" font-size="14.00" fill="#666666">[timestamp]</text>
</g>
<!-- users -->
<g id="node5" class="node">
<title>users</title>
<polygon fill="#efefef" stroke="transparent" points="1291.5,-282.5 1291.5,-317.5 1501.5,-317.5 1501.5,-282.5 1291.5,-282.5"/>
<polygon fill="none" stroke="#000000" points="1291.5,-282.5 1291.5,-317.5 1501.5,-317.5 1501.5,-282.5 1291.5,-282.5"/>
<text text-anchor="start" x="1325.8708" y="-295.3" font-family="Arial Bold" font-size="18.00" fill="#000000">users</text>
<text text-anchor="start" x="1369.8754" y="-295.3" font-family="Arial" font-size="14.00" fill="#000000"> </text>
<text text-anchor="start" x="1373.766" y="-295.3" font-family="Arial" font-size="14.00" fill="#666666">[BASE TABLE]</text>
<polygon fill="none" stroke="#000000" points="1291.5,-252.5 1291.5,-282.5 1501.5,-282.5 1501.5,-252.5 1291.5,-252.5"/>
<text text-anchor="start" x="1298.5" y="-263.9" font-family="Arial" font-size="14.00" fill="#000000">id </text>
<text text-anchor="start" x="1313.2798" y="-263.9" font-family="Arial" font-size="14.00" fill="#666666">[bigint(20) unsigned]</text>
<polygon fill="none" stroke="#000000" points="1291.5,-222.5 1291.5,-252.5 1501.5,-252.5 1501.5,-222.5 1291.5,-222.5"/>
<text text-anchor="start" x="1298.5" y="-233.9" font-family="Arial" font-size="14.00" fill="#000000">name </text>
<text text-anchor="start" x="1337.399" y="-233.9" font-family="Arial" font-size="14.00" fill="#666666">[varchar(255)]</text>
<polygon fill="none" stroke="#000000" points="1291.5,-192.5 1291.5,-222.5 1501.5,-222.5 1501.5,-192.5 1291.5,-192.5"/>
<text text-anchor="start" x="1298.5" y="-203.9" font-family="Arial" font-size="14.00" fill="#000000">email </text>
<text text-anchor="start" x="1335.8296" y="-203.9" font-family="Arial" font-size="14.00" fill="#666666">[varchar(255)]</text>
<polygon fill="none" stroke="#000000" points="1291.5,-162.5 1291.5,-192.5 1501.5,-192.5 1501.5,-162.5 1291.5,-162.5"/>
<text text-anchor="start" x="1298.5" y="-173.9" font-family="Arial" font-size="14.00" fill="#000000">email_verified_at </text>
<text text-anchor="start" x="1408.1802" y="-173.9" font-family="Arial" font-size="14.00" fill="#666666">[timestamp]</text>
<polygon fill="none" stroke="#000000" points="1291.5,-132.5 1291.5,-162.5 1501.5,-162.5 1501.5,-132.5 1291.5,-132.5"/>
<text text-anchor="start" x="1298.5" y="-143.9" font-family="Arial" font-size="14.00" fill="#000000">password </text>
<text text-anchor="start" x="1362.2882" y="-143.9" font-family="Arial" font-size="14.00" fill="#666666">[varchar(255)]</text>
<polygon fill="none" stroke="#000000" points="1291.5,-102.5 1291.5,-132.5 1501.5,-132.5 1501.5,-102.5 1291.5,-102.5"/>
<text text-anchor="start" x="1298.0982" y="-113.9" font-family="Arial" font-size="14.00" fill="#000000">remember_token </text>
<text text-anchor="start" x="1407.7826" y="-113.9" font-family="Arial" font-size="14.00" fill="#666666">[varchar(100)]</text>
<polygon fill="none" stroke="#000000" points="1291.5,-72.5 1291.5,-102.5 1501.5,-102.5 1501.5,-72.5 1291.5,-72.5"/>
<text text-anchor="start" x="1298.5" y="-83.9" font-family="Arial" font-size="14.00" fill="#000000">created_at </text>
<text text-anchor="start" x="1368.528" y="-83.9" font-family="Arial" font-size="14.00" fill="#666666">[timestamp]</text>
<polygon fill="none" stroke="#000000" points="1291.5,-42.5 1291.5,-72.5 1501.5,-72.5 1501.5,-42.5 1291.5,-42.5"/>
<text text-anchor="start" x="1298.5" y="-53.9" font-family="Arial" font-size="14.00" fill="#000000">updated_at </text>
<text text-anchor="start" x="1372.4326" y="-53.9" font-family="Arial" font-size="14.00" fill="#666666">[timestamp]</text>
</g>
</g>
</svg>
